<mxfile host="app.diagrams.net" modified="2024-03-26T10:09:41.695Z" agent="Mozilla/5.0 (Windows NT 10.0; Win64; x64) AppleWebKit/537.36 (KHTML, like Gecko) Chrome/122.0.0.0 Safari/537.36 Edg/122.0.0.0" etag="I5Q4E3W9rF_6wiYSuKcZ" version="24.1.0" type="device">
  <diagram name="Page-1" id="oa7sfJ7ROkfxtZybyBP_">
    <mxGraphModel dx="870" dy="521" grid="1" gridSize="10" guides="1" tooltips="1" connect="1" arrows="1" fold="1" page="1" pageScale="1" pageWidth="850" pageHeight="1100" math="0" shadow="0">
      <root>
        <mxCell id="0" />
        <mxCell id="1" parent="0" />
        <mxCell id="FDyv-x9ETz_QoEczyFXE-2" value="" style="endArrow=classic;html=1;rounded=0;exitX=1;exitY=0.5;exitDx=0;exitDy=0;entryX=0;entryY=0.5;entryDx=0;entryDy=0;" parent="1" target="FDyv-x9ETz_QoEczyFXE-3" edge="1">
          <mxGeometry width="50" height="50" relative="1" as="geometry">
            <mxPoint x="180" y="230" as="sourcePoint" />
            <mxPoint x="320" y="230" as="targetPoint" />
          </mxGeometry>
        </mxCell>
        <mxCell id="FDyv-x9ETz_QoEczyFXE-3" value="Router" style="ellipse;whiteSpace=wrap;html=1;" parent="1" vertex="1">
          <mxGeometry x="220" y="190" width="120" height="80" as="geometry" />
        </mxCell>
        <mxCell id="FDyv-x9ETz_QoEczyFXE-4" value="Service" style="ellipse;whiteSpace=wrap;html=1;" parent="1" vertex="1">
          <mxGeometry x="400" y="190" width="120" height="80" as="geometry" />
        </mxCell>
        <mxCell id="FDyv-x9ETz_QoEczyFXE-5" value="" style="endArrow=classic;html=1;rounded=0;exitX=1;exitY=0.5;exitDx=0;exitDy=0;entryX=0;entryY=0.5;entryDx=0;entryDy=0;" parent="1" source="FDyv-x9ETz_QoEczyFXE-3" target="FDyv-x9ETz_QoEczyFXE-4" edge="1">
          <mxGeometry width="50" height="50" relative="1" as="geometry">
            <mxPoint x="400" y="300" as="sourcePoint" />
            <mxPoint x="450" y="250" as="targetPoint" />
          </mxGeometry>
        </mxCell>
        <mxCell id="FDyv-x9ETz_QoEczyFXE-6" value="" style="endArrow=classic;html=1;rounded=0;exitX=1;exitY=0;exitDx=0;exitDy=0;" parent="1" source="FDyv-x9ETz_QoEczyFXE-4" target="FDyv-x9ETz_QoEczyFXE-7" edge="1">
          <mxGeometry width="50" height="50" relative="1" as="geometry">
            <mxPoint x="400" y="300" as="sourcePoint" />
            <mxPoint x="580" y="170" as="targetPoint" />
          </mxGeometry>
        </mxCell>
        <mxCell id="FDyv-x9ETz_QoEczyFXE-7" value="MySQL" style="ellipse;whiteSpace=wrap;html=1;" parent="1" vertex="1">
          <mxGeometry x="600" y="120" width="120" height="80" as="geometry" />
        </mxCell>
        <mxCell id="FDyv-x9ETz_QoEczyFXE-8" value="MongoDB" style="ellipse;whiteSpace=wrap;html=1;" parent="1" vertex="1">
          <mxGeometry x="600" y="270" width="120" height="80" as="geometry" />
        </mxCell>
        <mxCell id="FDyv-x9ETz_QoEczyFXE-9" value="" style="endArrow=classic;html=1;rounded=0;exitX=1;exitY=1;exitDx=0;exitDy=0;entryX=0;entryY=0;entryDx=0;entryDy=0;" parent="1" source="FDyv-x9ETz_QoEczyFXE-4" target="FDyv-x9ETz_QoEczyFXE-8" edge="1">
          <mxGeometry width="50" height="50" relative="1" as="geometry">
            <mxPoint x="400" y="300" as="sourcePoint" />
            <mxPoint x="450" y="250" as="targetPoint" />
          </mxGeometry>
        </mxCell>
        <mxCell id="FDyv-x9ETz_QoEczyFXE-10" value="" style="endArrow=classic;startArrow=classic;html=1;rounded=0;" parent="1" edge="1">
          <mxGeometry width="50" height="50" relative="1" as="geometry">
            <mxPoint x="140" y="330" as="sourcePoint" />
            <mxPoint x="430" y="330" as="targetPoint" />
          </mxGeometry>
        </mxCell>
        <mxCell id="FDyv-x9ETz_QoEczyFXE-11" value="Lệnh riêng" style="text;html=1;align=center;verticalAlign=middle;whiteSpace=wrap;rounded=0;" parent="1" vertex="1">
          <mxGeometry x="235" y="295" width="90" height="30" as="geometry" />
        </mxCell>
        <mxCell id="FDyv-x9ETz_QoEczyFXE-13" value="Actor" style="shape=umlActor;verticalLabelPosition=bottom;verticalAlign=top;html=1;outlineConnect=0;" parent="1" vertex="1">
          <mxGeometry x="110" y="180" width="60" height="80" as="geometry" />
        </mxCell>
        <mxCell id="CZCHmg9AbwljRjncShT4-1" value="Actor" style="shape=umlActor;verticalLabelPosition=bottom;verticalAlign=top;html=1;outlineConnect=0;" vertex="1" parent="1">
          <mxGeometry x="80" y="470" width="50" height="90" as="geometry" />
        </mxCell>
        <mxCell id="CZCHmg9AbwljRjncShT4-2" value="config.properties" style="ellipse;whiteSpace=wrap;html=1;" vertex="1" parent="1">
          <mxGeometry x="220" y="475" width="120" height="80" as="geometry" />
        </mxCell>
        <mxCell id="CZCHmg9AbwljRjncShT4-3" value="" style="endArrow=classic;html=1;rounded=0;entryX=0;entryY=0.5;entryDx=0;entryDy=0;" edge="1" parent="1" source="CZCHmg9AbwljRjncShT4-1" target="CZCHmg9AbwljRjncShT4-2">
          <mxGeometry width="50" height="50" relative="1" as="geometry">
            <mxPoint x="400" y="540" as="sourcePoint" />
            <mxPoint x="450" y="490" as="targetPoint" />
          </mxGeometry>
        </mxCell>
        <mxCell id="CZCHmg9AbwljRjncShT4-5" value="&lt;div&gt;&lt;br&gt;&lt;/div&gt;&lt;div&gt;&lt;br&gt;&lt;/div&gt;" style="rhombus;whiteSpace=wrap;html=1;fontColor=#000000;fillColor=#ffffc0;strokeColor=#ff0000;" vertex="1" parent="1">
          <mxGeometry x="420" y="495" width="80" height="40" as="geometry" />
        </mxCell>
        <mxCell id="CZCHmg9AbwljRjncShT4-6" value="mongodb" style="edgeStyle=orthogonalEdgeStyle;html=1;align=left;verticalAlign=bottom;endArrow=open;endSize=8;strokeColor=#ff0000;rounded=0;entryX=0;entryY=0.5;entryDx=0;entryDy=0;" edge="1" source="CZCHmg9AbwljRjncShT4-5" parent="1" target="CZCHmg9AbwljRjncShT4-9">
          <mxGeometry x="-0.1111" y="5" relative="1" as="geometry">
            <mxPoint x="620" y="510" as="targetPoint" />
            <Array as="points">
              <mxPoint x="640" y="515" />
              <mxPoint x="640" y="510" />
            </Array>
            <mxPoint as="offset" />
          </mxGeometry>
        </mxCell>
        <mxCell id="CZCHmg9AbwljRjncShT4-7" value="mysql" style="edgeStyle=orthogonalEdgeStyle;html=1;align=left;verticalAlign=top;endArrow=open;endSize=8;strokeColor=#ff0000;rounded=0;entryX=0.018;entryY=0.614;entryDx=0;entryDy=0;entryPerimeter=0;" edge="1" source="CZCHmg9AbwljRjncShT4-5" parent="1" target="CZCHmg9AbwljRjncShT4-10">
          <mxGeometry x="0.037" y="20" relative="1" as="geometry">
            <mxPoint x="620" y="610" as="targetPoint" />
            <Array as="points">
              <mxPoint x="460" y="610" />
              <mxPoint x="642" y="610" />
              <mxPoint x="642" y="613" />
            </Array>
            <mxPoint as="offset" />
          </mxGeometry>
        </mxCell>
        <mxCell id="CZCHmg9AbwljRjncShT4-8" value="" style="endArrow=classic;html=1;rounded=0;exitX=1;exitY=0.5;exitDx=0;exitDy=0;entryX=0;entryY=0.5;entryDx=0;entryDy=0;" edge="1" parent="1" source="CZCHmg9AbwljRjncShT4-2" target="CZCHmg9AbwljRjncShT4-5">
          <mxGeometry width="50" height="50" relative="1" as="geometry">
            <mxPoint x="400" y="460" as="sourcePoint" />
            <mxPoint x="450" y="410" as="targetPoint" />
          </mxGeometry>
        </mxCell>
        <mxCell id="CZCHmg9AbwljRjncShT4-9" value="mongodb" style="ellipse;whiteSpace=wrap;html=1;" vertex="1" parent="1">
          <mxGeometry x="690" y="475" width="110" height="70" as="geometry" />
        </mxCell>
        <mxCell id="CZCHmg9AbwljRjncShT4-10" value="mysql" style="ellipse;whiteSpace=wrap;html=1;" vertex="1" parent="1">
          <mxGeometry x="680" y="570" width="110" height="70" as="geometry" />
        </mxCell>
      </root>
    </mxGraphModel>
  </diagram>
</mxfile>
